<svg width="708" height="442" viewBox="0 0 708 442" fill="none" xmlns="http://www.w3.org/2000/svg">
<path d="M151.495 164.395L195.745 16.7209H352.095L151.495 164.395Z" fill="#CB8D0F"/>
<path d="M401.2 0H708L249.205 225V248L540.361 418H431.989L284.164 321L393.035 418H324.117L236.221 335L302.642 418H272.178L191.274 324.784L150.822 331.5L140.833 339.5V347L123.854 366V349.5H101.38L85.8984 366V349.5L101.38 331.5H122.355L142.831 310.5L153.812 294.5L129.347 277.628H47.2L62.6608 307.163C38.4901 307.162 -10.5288 293.927 2.02177 248.1L84.1154 190.302L129.8 200.638V200.837L401.2 0Z" fill="#F7F7F7"/>
<path d="M612.37 442L601.739 418H606.043L613.478 435.609L620.913 418H625.217L614.587 442H612.37ZM600.957 442V418H605.13V442H600.957ZM621.826 442V418H626V442H621.826ZM585.304 442V420.087H589.478V442H585.304ZM578 421.652V418H596.783V421.652H578Z" fill="#F7F7F7"/>
</svg>
