<svg width="135" height="61" viewBox="0 0 135 61" fill="none" xmlns="http://www.w3.org/2000/svg">
<path d="M22.1679 36.915H15.8905L7.99031 27.1675C7.31997 27.8714 0.78418 35.2786 0.78418 35.2786V10.4091C0.78418 10.275 0.951764 10.1074 1.15287 10.1074H5.57709C5.77819 10.1074 5.91226 10.275 5.91226 10.4091V22.6092L16.1277 10.1074H22.0586L11.409 23.7488L22.1679 36.915Z" fill="#F7F7F7"/>
<path d="M43.3469 34.4636H25.168V10.1074H43.1168V14.9918H31.3153V19.8433H41.9333V24.3015H31.3153V29.5793H43.3469V34.4636Z" fill="#F7F7F7"/>
<path d="M63.6379 34.4636H46.741V10.1074H52.8883V29.5465H63.6379V34.4636Z" fill="#F7F7F7"/>
<path d="M72.6575 34.4636H66.7732V10.1074H74.597L79.7581 23.0559L80.4484 24.9572H80.4813L81.1716 23.0559L86.3327 10.1074H94.1237V34.4636H88.2723V20.5645L88.338 17.8765H88.2723L87.4504 20.0072L82.8153 31.1527H78.0816L73.4464 20.0072L72.6246 17.8765H72.5917L72.6575 20.5645V34.4636Z" fill="#F7F7F7"/>
<path d="M117.215 34.4636H99.0365V10.1074H116.985V14.9918H105.184V19.8433H115.802V24.3015H105.184V29.5793H117.215V34.4636Z" fill="#F7F7F7"/>
<path d="M10.2704 60.7436C3.84828 60.7436 1.07452 57.9948 0.949575 54.3964H4.89781C4.97277 56.1956 6.14725 57.7699 10.2954 57.7699C13.5939 57.7699 15.0183 56.8703 15.0183 55.221C15.0183 53.4968 14.1437 52.9221 9.52074 52.2474C3.22356 51.3478 1.62427 49.5736 1.62427 46.5499C1.62427 43.7262 3.97322 41.4022 9.89557 41.4022C15.8929 41.4022 18.4667 44.0011 18.7416 47.6244H14.9433C14.7684 45.9252 13.6689 44.3759 10.0455 44.3759C6.82195 44.3759 5.69745 45.3755 5.69745 46.6249V46.6499C5.69745 48.0243 6.44711 48.7739 10.2454 49.2737C17.6671 50.2733 19.0915 52.2224 19.0915 55.1461C19.0915 58.8694 15.9429 60.7436 10.2704 60.7436ZM31.456 60.3438H27.4078V44.9007H20.1361V41.7771H38.7528V44.9007H31.456V60.3438ZM50.2185 60.7436C43.4466 60.7436 40.6478 57.9198 40.6478 52.2974V41.7771H44.696V52.2474C44.696 55.8458 46.5952 57.62 50.2185 57.62C53.8419 57.62 55.7161 55.8458 55.7161 52.2474V41.7771H59.7643V52.2974C59.7643 57.8699 57.0405 60.7436 50.2185 60.7436ZM73.8392 60.3438H63.9186V41.7771H73.8142C80.7361 41.7771 83.9347 45.4004 83.9347 50.9729V51.0979C83.9347 56.5704 80.936 60.3438 73.8392 60.3438ZM67.9418 44.9007V57.2201H73.1645C77.3626 57.2201 79.8365 55.4709 79.8365 51.2228V50.848C79.8365 46.6999 77.4626 44.9007 73.1645 44.9007H67.9418ZM91.4177 60.3438H87.3945V41.7771H91.4177V60.3438ZM105.601 60.7436C98.854 60.7436 94.8558 57.3951 94.8558 51.1479V50.9729C94.8558 44.7507 98.854 41.4022 105.601 41.4022C112.373 41.4022 116.346 44.7507 116.346 50.9729V51.1479C116.346 57.3951 112.373 60.7436 105.601 60.7436ZM105.601 57.62C109.699 57.62 112.273 55.346 112.273 51.1978V50.923C112.273 46.7748 109.699 44.5258 105.601 44.5258C101.503 44.5258 98.9539 46.7248 98.9539 50.923V51.1978C98.9539 55.396 101.503 57.62 105.601 57.62Z" fill="#F7F7F7"/>
<path d="M131.592 6L128.935 0H130.011L131.87 4.40217L133.728 0H134.804L132.147 6H131.592ZM128.739 6V0H129.783V6H128.739ZM133.957 6V0H135V6H133.957ZM124.826 6V0.521739H125.87V6H124.826ZM123 0.913044V0H127.696V0.913044H123Z" fill="#F7F7F7"/>
</svg>
