<svg width="708" height="418" viewBox="0 0 708 418" fill="none" xmlns="http://www.w3.org/2000/svg">
<path d="M151.495 164.395L195.745 16.7209H352.095L151.495 164.395Z" fill="url(#paint0_linear_3217_2337)"/>
<path d="M401.2 0H708L249.205 225V248L540.361 418H431.989L284.164 321L393.035 418H324.117L236.221 335L302.642 418H272.178L191.274 324.784L150.822 331.5L140.833 339.5V347L123.854 366V349.5H101.38L85.8984 366V349.5L101.38 331.5H122.355L142.831 310.5L153.812 294.5L129.347 277.628H47.2L62.6608 307.163C38.4901 307.162 -10.5288 293.927 2.02177 248.1L84.1154 190.302L129.8 200.638V200.837L401.2 0Z" fill="#F7F7F7"/>
<defs>
<linearGradient id="paint0_linear_3217_2337" x1="708" y1="417.997" x2="-1.02003e-05" y2="417.997" gradientUnits="userSpaceOnUse">
<stop stop-color="#017DDD"/>
<stop offset="0.52" stop-color="#26D182"/>
<stop offset="1" stop-color="#FAD007"/>
</linearGradient>
</defs>
</svg>
